<?xml version="1.0" standalone="no"?>
<!DOCTYPE svg PUBLIC "-//W3C//DTD SVG 20010904//EN"
 "http://www.w3.org/TR/2001/REC-SVG-20010904/DTD/svg10.dtd">
<svg version="1.0" xmlns="http://www.w3.org/2000/svg"
 width="1198.000000pt" height="629.000000pt" viewBox="0 0 1198.000000 629.000000"
 preserveAspectRatio="xMidYMid meet">

<g transform="translate(0.000000,629.000000) scale(0.100000,-0.100000)"
fill="#000000" stroke="none">
<path d="M8645 6086 l50 -13 -78 -4 c-43 -3 -81 -9 -85 -15 -8 -12 -22 -14
-105 -13 -39 0 -57 -3 -52 -10 3 -6 13 -11 21 -11 8 0 14 -4 14 -10 0 -5 -7
-10 -15 -10 -25 0 -65 -23 -65 -37 0 -22 -26 -43 -52 -43 -21 0 -20 2 11 21
38 23 38 30 -1 22 -16 -3 -30 -14 -34 -26 -9 -29 -29 -47 -52 -47 -11 0 -29
-8 -40 -17 -22 -20 -52 -92 -52 -126 0 -13 -4 -27 -9 -32 -5 -6 -12 -26 -16
-45 l-7 -35 18 25 c10 14 21 27 24 30 4 3 15 22 24 42 13 27 29 41 59 53 24
10 43 13 45 7 2 -6 17 -6 39 -1 20 4 41 6 45 3 5 -3 43 2 85 12 84 18 255 15
309 -7 46 -18 212 -14 259 6 63 26 249 67 233 50 -12 -13 60 -90 92 -98 l25
-6 -21 17 c-27 22 -41 57 -19 49 19 -8 32 13 14 24 -8 4 -19 3 -27 -3 -9 -8
-16 -8 -24 0 -7 7 1 14 31 22 22 6 41 14 41 18 0 14 -66 62 -85 62 -15 0 -16
3 -7 9 10 6 4 12 -20 20 -18 7 -41 17 -50 22 -10 5 -25 9 -34 9 -13 0 -14 -3
-4 -15 11 -13 8 -15 -13 -15 -14 0 -29 5 -32 10 -3 6 1 10 11 10 13 0 14 3 4
15 -14 17 -35 21 -25 5 8 -12 -34 -29 -55 -23 -12 4 -13 3 -1 -5 7 -5 11 -14
7 -20 -3 -6 8 -8 32 -6 20 2 31 1 24 -2 -6 -3 -10 -9 -7 -14 3 -4 -6 -15 -20
-24 -17 -11 -30 -13 -47 -7 -22 9 -22 10 7 11 28 1 29 1 11 15 -12 9 -23 11
-31 5 -6 -5 -16 -5 -23 -1 -8 4 -24 6 -38 3 l-25 -4 23 25 c15 17 27 22 34 16
18 -15 25 3 9 21 -14 16 -14 18 5 23 13 3 20 0 20 -9 0 -15 18 -18 44 -8 23 9
1 34 -28 34 -12 0 -27 5 -34 12 -7 7 -12 9 -12 5 0 -4 -9 -3 -20 3 -13 7 -20
7 -20 1 0 -6 -15 -4 -35 5 -26 11 -49 12 -90 6 -33 -5 -52 -5 -49 0 4 5 -2 8
-12 7 -11 -2 -24 -1 -30 3 -5 4 -35 9 -65 12 l-54 5 50 -13z m11 -33 c-10 -11
-66 -12 -66 -2 0 5 17 9 37 9 20 0 33 -3 29 -7z m-30 -30 c22 3 30 2 19 0 -11
-3 -25 -9 -32 -15 -7 -5 -17 -7 -23 -3 -5 3 -10 1 -10 -4 0 -6 -17 -11 -37
-11 -26 0 -34 3 -24 9 8 5 20 7 27 4 6 -2 15 0 19 6 3 6 1 11 -5 11 -6 0 -8 5
-5 10 5 8 11 8 20 0 7 -6 30 -9 51 -7z m-125 -9 c-18 -13 -20 -18 -10 -25 11
-7 9 -9 -6 -9 -12 0 -27 -6 -34 -12 -11 -11 -12 -10 -7 0 6 9 1 11 -19 8 -35
-7 -27 1 32 29 57 28 77 31 44 9z m409 -4 c0 -5 -10 -10 -22 -10 -19 0 -20 2
-8 10 19 13 30 13 30 0z m-149 -53 c-10 -9 -11 -8 -5 6 3 10 9 15 12 12 3 -3
0 -11 -7 -18z m69 4 c0 -12 -26 -32 -33 -25 -6 7 14 33 26 34 4 0 7 -4 7 -9z
m43 -18 c-24 -8 -26 -8 -29 9 -2 15 1 16 19 6 13 -7 17 -13 10 -15z m-298 7
c-28 -12 -37 -12 -30 0 3 6 16 10 28 9 21 0 21 -1 2 -9z m635 1 c0 -12 -63
-21 -74 -11 -5 5 -16 6 -25 3 -14 -4 -14 -3 -1 6 18 13 100 15 100 2z m-12
-30 c11 -6 9 -9 -7 -14 -12 -3 -22 1 -25 9 -6 16 12 18 32 5z m-231 -13 c-5
-3 10 -11 34 -16 l44 -10 -61 2 c-34 0 -59 5 -57 10 3 5 -14 6 -38 3 -59 -9
-168 -12 -174 -5 -3 2 1 5 8 6 41 3 89 11 93 15 3 3 40 4 83 3 44 0 74 -4 68
-8z m108 -8 c3 -5 1 -10 -4 -10 -6 0 -11 5 -11 10 0 6 2 10 4 10 3 0 8 -4 11
-10z m55 0 c0 -5 -10 -10 -22 -9 -22 0 -22 1 -3 9 11 5 21 9 23 9 1 1 2 -3 2
-9z"/>
<path d="M9334 5845 c11 -8 14 -15 8 -15 -21 0 -13 -37 9 -43 16 -4 18 -3 9 8
-8 10 -8 15 0 20 13 8 -16 45 -34 45 -6 0 -2 -7 8 -15z"/>
<path d="M11035 5666 c-43 -44 -46 -148 -5 -206 49 -70 130 -9 130 98 0 54
-17 98 -45 116 -33 22 -52 20 -80 -8z m79 -12 c18 -18 19 -19 17 -99 -2 -84
-2 -82 -28 -96 -31 -17 -69 1 -75 36 -5 24 -2 105 5 137 7 38 53 50 81 22z"/>
<path d="M11270 5600 l0 -40 -41 0 c-26 0 -38 -4 -33 -11 3 -6 22 -9 40 -7 33
4 34 3 34 -34 0 -21 5 -38 11 -38 7 0 10 14 7 35 -4 34 -3 35 28 35 18 0 36 5
39 10 4 6 -8 10 -29 10 -35 0 -36 1 -36 40 0 22 -4 40 -10 40 -5 0 -10 -18
-10 -40z"/>
<path d="M8030 5452 c0 -33 16 -43 27 -16 3 8 -2 23 -11 32 -15 15 -16 14 -16
-16z"/>
<path d="M8465 5461 c-11 -5 -78 -6 -150 -4 -136 4 -191 -6 -181 -34 4 -8 6
-20 6 -28 0 -16 96 -52 123 -47 4 1 7 -2 7 -8 0 -5 7 -7 15 -4 12 5 13 9 4 20
-7 8 -8 18 -4 22 4 4 10 1 12 -6 3 -7 11 -19 20 -27 13 -13 13 -15 -2 -15 -10
0 -13 -5 -9 -11 5 -8 -1 -10 -20 -7 -36 7 -33 2 12 -19 29 -14 59 -18 135 -16
54 0 103 5 110 11 7 5 25 12 41 16 16 4 37 17 46 29 16 20 20 20 44 7 27 -14
58 -57 71 -98 5 -18 2 -25 -13 -29 -19 -4 -32 -29 -32 -60 0 -9 16 -13 45 -13
33 0 45 -4 45 -15 0 -8 9 -19 20 -25 46 -24 7 -60 -65 -60 -19 0 -37 -4 -40
-10 -3 -5 -27 -10 -53 -10 -63 0 -122 -11 -122 -21 0 -5 8 -9 18 -9 30 0 33
-12 9 -32 -15 -13 -30 -17 -47 -13 -33 8 -107 23 -147 30 -54 10 -37 -9 25
-28 92 -28 160 -37 272 -38 69 0 99 -3 89 -9 -15 -9 -36 -10 -164 -9 -22 0
-55 4 -73 9 -28 7 -33 6 -28 -6 3 -9 6 -19 6 -24 0 -18 32 -39 82 -53 114 -33
140 -38 159 -32 11 4 19 3 18 -2 -4 -21 4 -22 40 -3 23 11 47 17 57 13 13 -5
16 -3 11 10 -3 9 -2 17 3 17 6 0 10 -5 10 -10 0 -7 6 -7 19 0 27 14 41 13 41
-5 0 -8 -11 -17 -25 -21 -25 -6 -35 -34 -12 -34 8 0 8 -3 -2 -9 -8 -5 -19 -7
-26 -5 -6 3 -18 -2 -25 -10 -7 -9 -16 -14 -20 -11 -4 3 -39 -5 -77 -16 -54
-17 -91 -21 -180 -20 -62 1 -119 4 -128 7 -8 3 -15 2 -15 -4 0 -47 345 -37
475 14 56 22 149 67 155 76 3 3 19 10 35 14 17 3 44 17 62 30 17 13 36 24 41
24 14 0 62 58 62 76 0 9 -8 18 -18 21 -25 6 -27 50 -2 58 20 6 26 30 12 52
-12 19 -94 33 -167 28 -74 -4 -125 10 -155 45 -10 11 -29 21 -43 22 -14 1 -24
5 -21 9 2 4 -1 11 -7 15 -7 4 -2 15 15 31 23 21 38 25 110 28 115 5 182 15
165 26 -9 6 -1 9 24 9 20 0 37 5 37 10 0 6 8 10 17 10 29 0 83 24 83 36 0 7 5
14 11 16 16 5 2 48 -15 48 -8 0 -34 9 -58 20 -29 13 -76 21 -134 25 -49 2
-111 10 -139 16 -73 17 -247 13 -261 -6 -6 -8 -22 -15 -36 -15 -22 0 -25 4
-20 25 5 29 -5 31 -55 13 -27 -10 -38 -10 -53 0 -22 13 -45 14 -75 3z m205
-91 c0 -5 -4 -10 -10 -10 -5 0 -10 5 -10 10 0 6 5 10 10 10 6 0 10 -4 10 -10z
m210 -394 c0 -18 -39 -25 -87 -16 l-38 7 35 10 c51 16 90 16 90 -1z"/>
<path d="M9486 5379 c-47 -35 -65 -68 -63 -113 2 -32 4 -35 27 -29 40 9 70 47
70 89 0 34 1 36 13 19 19 -25 37 -10 37 31 0 29 -3 34 -22 33 -13 0 -41 -14
-62 -30z"/>
<path d="M9616 5349 c-3 -17 -6 -42 -6 -55 0 -15 -6 -24 -15 -24 -12 0 -15
-17 -15 -91 0 -77 2 -90 15 -85 19 7 19 -14 0 -40 -8 -10 -15 -36 -15 -56 0
-42 10 -43 65 -3 17 11 51 33 77 48 58 34 69 51 56 89 -9 25 -7 32 8 43 15 10
19 22 16 60 l-4 46 -22 -20 c-26 -25 -49 -27 -66 -6 -11 13 -11 20 0 41 10 18
11 27 3 35 -8 8 -15 0 -24 -32 -16 -57 -25 -68 -50 -62 -17 5 -19 11 -14 52 3
25 8 56 11 69 2 12 0 22 -5 22 -4 0 -11 -14 -15 -31z"/>
<path d="M8416 5155 c-3 -9 -18 -15 -35 -15 -31 0 -57 -8 -128 -43 -48 -23
-49 -24 -28 -54 l15 -22 43 24 c23 12 59 26 81 30 21 3 48 11 60 17 11 6 28
14 36 18 20 10 25 41 8 51 -20 13 -45 11 -52 -6z"/>
<path d="M6958 5063 c7 -3 16 -2 19 1 4 3 -2 6 -13 5 -11 0 -14 -3 -6 -6z"/>
<path d="M7063 5063 c9 -2 25 -2 35 0 9 3 1 5 -18 5 -19 0 -27 -2 -17 -5z"/>
<path d="M7140 5061 c16 -10 183 -31 246 -31 67 0 28 11 -72 20 -55 6 -119 12
-144 15 -30 4 -40 2 -30 -4z"/>
<path d="M7007 5033 c-3 -3 -21 -6 -39 -8 -29 -2 -33 -7 -44 -46 -6 -24 -19
-60 -27 -79 -25 -59 -49 -207 -42 -265 5 -40 3 -55 -9 -67 -13 -13 -14 -22 -5
-47 6 -18 15 -28 22 -24 7 4 8 0 4 -11 -4 -10 -1 -53 7 -95 23 -124 45 -336
51 -491 3 -80 10 -163 15 -185 15 -59 37 -191 45 -265 11 -116 65 -432 80
-466 14 -35 29 -48 18 -16 -3 9 -3 14 1 10 11 -9 15 -88 5 -94 -16 -10 3 -32
34 -38 18 -4 158 -10 312 -12 245 -5 297 -7 339 -13 5 0 3 -8 -4 -16 -20 -24
6 -19 57 10 l43 26 0 -46 c0 -38 -7 -54 -47 -105 -25 -33 -50 -60 -55 -60 -4
0 -8 -5 -8 -11 0 -16 41 17 77 62 l32 40 10 -38 c6 -21 15 -79 22 -129 13
-102 10 -112 -56 -198 -19 -25 -35 -48 -35 -51 0 -11 56 30 82 59 30 35 32 32
43 -47 6 -44 8 -47 28 -41 12 4 30 7 40 6 9 0 17 3 17 9 0 5 6 9 14 9 9 0 16
18 20 50 5 34 11 50 21 50 17 0 20 -16 5 -25 -5 -3 -7 -12 -3 -20 3 -8 0 -15
-6 -15 -13 0 -14 -29 -1 -50 7 -12 13 -11 34 9 24 22 24 25 11 52 -8 15 -15
38 -15 51 l0 23 24 -25 c13 -14 21 -28 19 -32 -2 -5 2 -8 10 -8 8 0 37 -22 66
-50 29 -27 57 -50 62 -50 6 0 7 -4 4 -10 -3 -5 -1 -10 4 -10 6 0 11 -4 11 -10
0 -17 -165 -13 -180 5 -7 8 -16 13 -20 10 -5 -3 -11 1 -14 7 -3 7 -4 0 -1 -16
15 -73 44 -87 186 -85 43 1 82 -2 88 -6 17 -10 61 -82 61 -99 0 -8 13 -24 29
-36 17 -11 51 -55 77 -98 79 -129 88 -141 114 -148 29 -8 212 -11 220 -4 52
50 70 61 89 55 28 -9 26 -33 -6 -99 -24 -50 -25 -58 -14 -95 12 -42 43 -78
129 -149 44 -37 52 -48 52 -78 0 -50 22 -43 64 20 45 67 48 111 10 120 -17 5
-32 2 -44 -9 -20 -18 -101 -11 -138 12 -29 18 -62 71 -62 101 0 26 34 97 52
109 21 13 15 56 -10 78 l-24 21 22 24 21 25 -7 -25 c-10 -39 -10 -42 4 -47 6
-3 12 3 12 11 0 9 12 39 26 67 14 28 23 53 20 56 -3 3 7 28 22 56 15 27 41 77
58 110 17 33 33 54 35 48 3 -7 6 13 7 46 1 32 5 66 8 76 7 22 24 22 24 1 0
-27 25 0 44 48 38 93 61 130 102 164 55 46 65 69 27 60 -19 -4 -23 -3 -13 3 8
4 35 11 60 15 25 4 54 13 65 20 35 23 137 57 195 65 l55 9 -46 1 c-41 1 -114
-16 -211 -48 -20 -6 -28 -5 -32 5 -5 13 27 33 154 95 l35 18 -42 -5 c-23 -2
-95 -17 -160 -33 -185 -45 -258 -61 -308 -68 -50 -6 -59 -17 -70 -76 -7 -33
-5 -37 14 -37 11 0 21 5 21 11 0 7 4 8 13 2 6 -5 42 -9 78 -8 58 0 65 -2 61
-17 -5 -19 -17 -23 -26 -9 -6 9 -130 13 -158 5 -10 -3 -29 -39 -49 -94 -17
-50 -34 -90 -36 -90 -3 0 -44 15 -92 34 -383 149 -485 184 -558 193 -36 4 -58
2 -68 -7 -14 -11 -14 -10 -5 14 15 40 13 76 -5 76 -8 0 -15 -6 -15 -14 0 -8
-7 -17 -16 -20 -22 -9 -24 -8 -24 9 0 8 -6 15 -14 15 -12 0 -14 -12 -12 -55 2
-30 0 -55 -5 -55 -5 0 -9 8 -9 17 0 16 -1 16 -12 0 -28 -36 -112 -49 -134 -19
-16 20 -18 32 -5 32 5 0 11 -10 14 -22 4 -12 9 -19 12 -16 4 3 1 16 -5 28 -7
13 -9 36 -6 52 3 16 2 27 -3 23 -5 -3 -12 -1 -16 5 -8 14 -14 158 -15 374 0
99 -3 176 -6 173 -4 -4 -7 -69 -8 -144 -1 -83 -5 -139 -11 -140 -6 -2 -10 53
-9 150 0 83 -2 139 -6 122 l-6 -30 -8 38 c-8 42 2 129 16 138 5 3 10 22 11 41
1 20 5 34 10 31 4 -2 7 1 7 8 0 8 3 9 14 0 10 -9 16 -8 25 3 10 12 8 19 -7 34
-11 11 -22 18 -25 16 -2 -3 -2 7 0 21 4 17 1 25 -8 25 -10 1 -8 4 4 11 21 12
22 29 2 29 -8 0 -15 -4 -15 -10 0 -5 -7 -10 -15 -10 -8 0 -15 5 -15 10 0 6 5
10 10 10 6 0 10 9 10 19 0 11 5 23 10 26 6 3 10 11 10 16 0 6 -4 7 -10 4 -5
-3 -10 -2 -10 3 0 6 7 12 15 16 8 3 15 12 15 20 0 15 -29 26 -73 26 -16 0 -26
4 -23 8 2 4 -25 9 -62 10 -37 2 -74 5 -83 8 -9 2 -40 7 -70 10 -30 3 -67 7
-84 10 -16 3 -104 9 -195 14 -91 5 -205 14 -255 19 -81 9 -94 9 -130 -9 -47
-23 -64 -14 -47 25 l12 27 128 -7 c70 -4 151 -11 181 -16 30 -5 81 -9 112 -9
32 0 91 -4 131 -9 40 -5 134 -14 208 -20 74 -7 159 -17 188 -23 45 -10 55 -9
63 3 17 27 1 34 -97 41 -215 15 -380 30 -401 35 -22 5 -22 7 19 65 l42 60 63
-6 c35 -3 92 -9 128 -12 84 -8 95 0 84 63 -5 25 -10 48 -12 49 -2 2 -42 7 -90
10 -48 4 -87 9 -87 11 0 2 7 17 15 33 19 37 36 37 109 5 31 -13 77 -30 103
-36 27 -7 58 -20 69 -31 20 -17 22 -18 28 -2 5 13 13 9 46 -24 40 -40 53 -85
28 -95 -10 -3 -9 -12 5 -37 9 -17 17 -47 17 -67 0 -27 4 -34 18 -31 12 2 19
16 22 43 4 32 10 40 30 45 29 7 146 -33 142 -49 -3 -14 12 -14 63 -1 76 20
145 44 145 52 0 4 14 8 30 8 17 0 30 3 30 8 0 4 25 7 55 8 30 0 65 6 77 12 13
6 41 16 63 22 22 7 50 19 63 26 19 13 22 13 22 0 0 -9 7 -12 20 -9 14 4 19 13
18 32 -3 37 -13 40 -72 25 -28 -8 -78 -14 -112 -14 -60 0 -60 0 -74 -36 l-15
-36 -69 7 c-66 6 -69 6 -63 -14 7 -27 -6 -26 -68 3 -28 12 -68 26 -89 30 -37
7 -74 31 -58 38 4 2 5 17 1 33 l-6 30 -8 -32 c-4 -18 -9 -33 -12 -33 -7 0 -68
45 -71 53 -2 4 -8 5 -13 1 -5 -3 -9 -1 -9 4 0 5 -6 9 -13 9 -6 0 -50 18 -97
41 -81 40 -113 63 -152 111 -10 11 -26 21 -36 21 -10 0 -29 11 -42 25 -13 14
-27 25 -31 25 -5 0 -32 11 -61 24 -29 13 -81 31 -116 40 -72 18 -147 65 -171
107 -18 32 -31 37 -31 14 0 -26 40 -97 81 -145 22 -25 47 -54 56 -64 15 -18
15 -19 -8 -13 -22 6 -28 -1 -64 -66 -29 -52 -72 -104 -157 -189 l-118 -118
-83 0 c-58 0 -89 -5 -103 -15 -29 -22 -34 -18 -34 23 0 53 21 86 136 214 174
195 205 251 226 416 18 142 -14 279 -99 423 -50 83 -175 194 -196 172z m19
-273 c71 -115 81 -274 25 -410 -31 -76 -106 -229 -120 -243 -6 -6 -8 591 -3
717 l2 39 31 -24 c17 -13 46 -49 65 -79z m-119 18 c-3 -8 -6 -5 -6 6 -1 11 2
17 5 13 3 -3 4 -12 1 -19z m-45 -250 c-7 -7 -12 -8 -12 -2 0 14 12 26 19 19 2
-3 -1 -11 -7 -17z m738 -548 c0 -16 -23 -60 -32 -60 -11 0 -10 7 2 31 9 16 7
19 -10 19 -11 0 -20 5 -20 10 0 6 14 10 30 10 17 0 30 -4 30 -10z m46 -9 c-19
-7 -19 -8 -1 -14 11 -5 25 -1 36 9 22 20 49 12 56 -16 l6 -21 14 21 c18 26 27
25 40 -3 8 -16 8 -29 1 -38 -7 -11 -11 -11 -15 -1 -6 15 -35 16 -50 1 -15 -15
-53 -2 -54 19 -1 15 -2 15 -6 0 -3 -12 -14 -18 -31 -17 -17 1 -21 3 -9 6 23 6
22 23 -3 23 -13 0 -20 7 -20 20 0 15 6 20 28 19 23 0 24 -2 8 -8z m-134 -8
c-25 -5 -25 -24 -1 -31 11 -3 11 -1 -1 8 -13 9 -12 11 5 8 23 -4 23 -21 0 -26
-19 -4 -45 15 -45 34 0 9 11 14 33 13 24 -1 26 -3 9 -6z m1218 -47 c0 -2 -7
-6 -15 -10 -8 -3 -15 -1 -15 4 0 6 7 10 15 10 8 0 15 -2 15 -4z m-1075 -255
c72 -6 153 -17 180 -25 l50 -14 -47 -1 c-26 -1 -50 -5 -53 -11 -3 -5 -19 -10
-35 -10 -39 0 -65 -11 -50 -20 25 -16 -2 -32 -41 -26 -34 6 -39 4 -39 -14 0
-16 -7 -20 -30 -20 -23 0 -30 5 -30 19 0 11 5 23 10 26 22 14 10 35 -20 35
-16 0 -30 5 -30 10 0 6 -4 10 -10 10 -5 0 -10 -9 -10 -20 0 -11 -7 -20 -15
-20 -8 0 -15 9 -15 19 0 11 -4 23 -10 26 -6 3 -10 -5 -10 -18 0 -31 -36 -44
-43 -16 -4 15 -11 18 -36 13 -27 -6 -31 -4 -31 14 0 18 -8 22 -50 28 -28 4
-48 9 -46 11 23 23 148 24 411 4z m-480 -41 c3 -5 1 -10 -4 -10 -6 0 -11 5
-11 10 0 6 2 10 4 10 3 0 8 -4 11 -10z m805 -6 c0 -2 -11 -4 -25 -4 -14 0 -25
4 -25 9 0 4 11 6 25 3 14 -2 25 -6 25 -8z m-85 -34 c3 -5 1 -10 -4 -10 -6 0
-11 5 -11 10 0 6 2 10 4 10 3 0 8 -4 11 -10z m-115 -60 c0 -5 5 -10 11 -10 5
0 7 6 4 13 -4 6 0 4 8 -5 8 -10 16 -15 19 -13 3 3 11 -2 19 -12 12 -15 12 -16
-1 -8 -14 9 -27 12 -80 19 -32 4 -32 4 -25 16 3 6 15 10 26 10 10 0 19 -4 19
-10z m159 -132 c-7 -12 -12 -32 -12 -43 1 -16 1 -17 -3 -2 -3 9 -10 14 -16 11
-11 -7 9 33 26 52 17 18 19 9 5 -18z m-902 -175 c-3 -10 -5 -2 -5 17 0 19 2
27 5 18 2 -10 2 -26 0 -35z m33 -20 c0 -30 -10 -54 -21 -47 -5 3 -9 15 -8 27
0 21 1 21 10 2 7 -15 8 -8 5 24 -3 30 -2 40 5 30 5 -7 9 -24 9 -36z m7 -130
c-3 -10 -5 -4 -5 12 0 17 2 24 5 18 2 -7 2 -21 0 -30z m110 -45 c-3 -8 -6 -5
-6 6 -1 11 2 17 5 13 3 -3 4 -12 1 -19z m153 -8 c0 -6 27 -10 60 -10 52 0 60
-2 60 -19 0 -41 -11 -51 -59 -52 -25 -1 -57 -4 -71 -8 -24 -7 -24 -7 9 -14 18
-4 57 -7 85 -7 40 0 55 4 66 20 8 11 22 20 32 20 9 0 20 -9 23 -20 3 -11 13
-20 21 -20 8 0 14 -4 14 -10 0 -5 15 -10 33 -10 17 0 38 -4 46 -9 27 -17 -31
-23 -148 -15 -64 5 -145 8 -181 7 -40 -2 -60 1 -51 6 8 5 21 7 30 4 12 -3 12
-2 -2 7 -9 6 -15 15 -12 21 4 5 1 9 -6 9 -10 0 -10 3 -1 12 17 17 15 25 -8 31
-15 4 -20 14 -20 36 0 29 2 31 40 31 22 0 40 -4 40 -10z m240 -80 c0 -5 -7
-10 -15 -10 -8 0 -15 5 -15 10 0 6 7 10 15 10 8 0 15 -4 15 -10z m1845 -310
c-3 -5 -11 -10 -16 -10 -6 0 -29 -9 -51 -20 -23 -11 -44 -18 -46 -15 -4 4 94
52 111 54 5 1 5 -3 2 -9z m-1260 -132 c24 -11 24 -12 9 -30 -20 -21 -30 -23
-31 -5 0 6 -4 20 -8 30 -8 20 -5 21 30 5z m1048 -25 c38 -6 48 -19 22 -29 -21
-8 -98 18 -103 35 -4 11 1 12 19 7 13 -4 41 -10 62 -13z m3 -54 c53 -14 53
-30 0 -43 -40 -11 -56 0 -56 37 0 20 -1 20 56 6z m-243 -165 c11 -21 24 -41
29 -43 16 -6 51 -94 49 -124 -1 -16 -19 -64 -41 -107 -32 -64 -43 -77 -59 -73
-15 4 -24 -6 -45 -51 -25 -53 -50 -77 -78 -75 -10 0 -10 2 0 6 41 17 -19 59
-70 49 -15 -3 -30 -1 -33 4 -3 6 -2 10 2 10 5 0 9 9 9 20 0 11 -6 20 -13 20
-7 0 -13 -7 -13 -15 0 -18 -14 -19 -28 -2 -17 20 2 40 32 35 20 -4 26 -1 26
13 0 11 -7 19 -15 19 -20 0 -19 29 4 92 11 29 31 101 46 159 l27 106 76 -2 75
-2 20 -39z m122 -61 c19 -46 19 -50 -7 -56 -38 -10 -75 66 -42 90 22 16 31 10
49 -34z m-155 -327 c0 -15 -18 -31 -26 -23 -7 7 7 37 17 37 5 0 9 -6 9 -14z
m-170 -66 c12 -8 11 -10 -7 -10 -13 0 -23 5 -23 10 0 13 11 13 30 0z m348
-295 c2 -2 0 -10 -5 -19 -7 -13 -13 -12 -38 10 l-30 25 35 -7 c19 -3 37 -8 38
-9z"/>
<path d="M7700 3940 c0 -11 5 -20 10 -20 6 0 10 9 10 20 0 11 -4 20 -10 20 -5
0 -10 -9 -10 -20z"/>
<path d="M7620 3595 c0 -9 9 -15 23 -14 19 1 19 2 3 6 -15 4 -16 7 -5 14 11 7
11 9 -3 9 -10 0 -18 -7 -18 -15z"/>
<path d="M7710 5031 c0 -5 6 -12 13 -15 6 -3 0 -4 -14 -1 -21 4 -28 0 -32 -15
-6 -25 24 -45 41 -28 9 9 12 9 12 0 0 -8 25 -12 83 -12 79 1 81 1 54 16 -49
27 -157 64 -157 55z"/>
<path d="M7535 5019 c56 -11 125 -11 125 1 0 6 -33 10 -82 9 -71 -1 -77 -2
-43 -10z"/>
<path d="M8077 5010 c3 -10 12 -25 21 -32 13 -11 12 -8 -2 20 -19 36 -27 41
-19 12z"/>
<path d="M9879 4998 c-3 -32 3 -74 12 -82 5 -6 9 8 9 36 0 26 -4 50 -10 53 -5
3 -10 0 -11 -7z"/>
<path d="M9580 4685 c0 -27 3 -33 16 -28 9 3 20 0 25 -8 13 -21 12 27 -1 52
-18 32 -40 23 -40 -16z"/>
<path d="M8388 4683 c7 -3 16 -2 19 1 4 3 -2 6 -13 5 -11 0 -14 -3 -6 -6z"/>
<path d="M8364 4665 c15 -8 38 -15 49 -15 33 0 7 17 -38 24 l-40 7 29 -16z"/>
<path d="M9505 4620 c40 -26 75 -26 75 0 0 17 -7 20 -52 20 l-53 0 30 -20z"/>
<path d="M9020 4600 c0 -5 5 -10 11 -10 5 0 7 5 4 10 -3 6 -8 10 -11 10 -2 0
-4 -4 -4 -10z"/>
<path d="M9345 4469 c-10 -15 3 -25 16 -12 7 7 7 13 1 17 -6 3 -14 1 -17 -5z"/>
<path d="M9373 4428 c-13 -6 -23 -15 -23 -20 0 -4 -33 -8 -73 -6 -54 1 -80 -3
-97 -15 -20 -14 -21 -17 -7 -23 12 -4 17 -18 17 -41 0 -27 3 -34 15 -29 8 3
15 1 15 -4 0 -5 13 -4 31 2 27 9 83 7 144 -5 11 -2 21 -13 23 -25 6 -40 32
-26 32 18 0 25 6 42 16 48 14 8 14 12 0 45 -10 26 -21 37 -35 37 -12 0 -21 7
-21 15 0 17 -6 18 -37 3z"/>
<path d="M2798 4405 c-3 -3 -51 -10 -106 -15 -110 -10 -142 -22 -183 -67 -44
-47 -60 -91 -69 -187 -10 -107 -4 -165 23 -224 47 -103 170 -140 284 -85 74
35 117 148 94 246 -22 98 -83 147 -181 147 -55 0 -80 -10 -119 -44 l-24 -21 7
34 c15 79 55 107 172 117 114 10 124 15 124 64 0 36 -8 49 -22 35z m-79 -289
c23 -24 26 -34 26 -102 0 -73 -1 -77 -34 -106 -30 -26 -39 -30 -78 -25 -53 6
-79 28 -93 76 -21 77 0 153 50 179 37 19 98 8 129 -22z"/>
<path d="M9547 4403 c-21 -20 12 -71 56 -86 25 -9 23 33 -4 67 -20 25 -39 33
-52 19z"/>
<path d="M675 4373 c-49 -18 -50 -19 -53 -62 -3 -39 -1 -43 15 -36 48 20 147
37 186 31 62 -10 82 -29 82 -77 0 -60 -28 -79 -116 -79 l-69 0 0 -45 0 -45 71
0 c103 0 129 -17 129 -86 0 -66 -22 -79 -139 -79 -73 0 -104 4 -128 18 l-33
18 0 -44 c0 -42 2 -45 42 -63 32 -14 65 -19 133 -19 77 0 98 4 140 25 61 32
88 75 89 141 1 57 -23 96 -78 123 l-38 19 35 20 c45 25 62 58 61 114 -1 51
-25 89 -74 118 -48 27 -187 32 -255 8z"/>
<path d="M4240 4381 c0 -45 38 -87 90 -101 79 -21 170 24 170 86 0 21 -4 24
-38 24 -29 0 -39 -5 -47 -22 -7 -16 -20 -24 -42 -26 -27 -3 -35 1 -45 22 -9
21 -18 26 -50 26 -21 0 -38 -4 -38 -9z"/>
<path d="M8220 4261 c0 -17 38 -33 46 -19 4 6 3 8 -4 4 -6 -3 -18 1 -26 10 -9
8 -16 11 -16 5z"/>
<path d="M1165 4215 c-22 -8 -41 -15 -42 -15 -2 0 -3 -18 -3 -41 0 -35 2 -40
18 -34 47 20 120 34 150 29 36 -7 62 -36 62 -70 0 -20 -6 -22 -79 -26 -92 -5
-137 -27 -164 -78 -23 -44 -17 -103 14 -136 50 -53 149 -56 200 -5 l28 28 6
-28 c6 -26 11 -29 48 -29 l42 0 -3 162 c-1 90 -8 176 -14 191 -17 43 -74 67
-155 67 -37 -1 -86 -7 -108 -15z m185 -235 c0 -66 -75 -123 -128 -98 -29 14
-37 36 -28 73 7 28 44 43 109 44 41 1 47 -2 47 -19z"/>
<path d="M1547 4224 c-4 -4 -7 -130 -7 -281 l0 -273 50 0 50 0 0 96 0 96 30
-26 c54 -45 136 -47 201 -3 81 53 109 204 57 304 -32 64 -83 93 -160 93 -52 0
-62 -3 -97 -36 l-40 -35 -3 33 c-3 30 -6 33 -38 36 -20 2 -39 0 -43 -4z m267
-93 c26 -22 46 -73 46 -118 0 -117 -110 -175 -186 -99 -32 32 -34 39 -34 98 0
75 24 124 67 134 15 3 33 7 38 8 17 5 49 -6 69 -23z"/>
<path d="M2085 4217 c-28 -9 -41 -19 -45 -37 -10 -38 -1 -61 19 -51 37 19 118
30 154 20 41 -11 42 -12 52 -56 l7 -33 -59 0 c-122 0 -191 -42 -200 -121 -7
-59 16 -106 62 -125 64 -26 127 -15 170 32 l25 27 0 -32 c0 -30 1 -31 45 -31
l45 0 0 163 c0 184 -10 215 -75 243 -41 17 -144 17 -200 1z m180 -227 c8 -13
-18 -71 -41 -92 -33 -29 -98 -27 -114 3 -18 32 -4 68 33 84 37 16 113 20 122
5z"/>
<path d="M3015 4216 c-101 -44 -144 -188 -91 -302 27 -59 63 -88 129 -105 123
-30 234 38 257 160 19 103 -21 198 -100 239 -51 25 -146 30 -195 8z m153 -83
c13 -8 30 -30 38 -48 56 -134 -69 -264 -168 -176 -29 26 -33 35 -36 97 -2 56
1 75 17 101 32 51 93 61 149 26z"/>
<path d="M3350 4190 l0 -40 60 0 60 0 0 -170 0 -170 50 0 50 0 0 170 0 170 66
0 65 0 -3 38 -3 37 -172 3 -173 2 0 -40z"/>
<path d="M3803 4214 c-41 -15 -43 -18 -43 -56 0 -34 2 -39 18 -33 47 21 120
34 150 29 42 -8 62 -28 62 -63 0 -28 -1 -28 -72 -33 -127 -8 -178 -49 -178
-141 0 -56 27 -92 80 -108 52 -16 103 -4 145 33 l35 30 0 -31 c0 -30 1 -31 45
-31 l45 0 0 148 c0 173 -9 213 -53 244 -41 30 -169 36 -234 12z m187 -244 c0
-45 -46 -92 -92 -93 -45 -1 -68 17 -68 53 0 46 35 67 118 69 40 1 42 0 42 -29z"/>
<path d="M4187 4224 c-4 -4 -7 -99 -7 -211 l0 -203 49 0 50 0 93 141 93 140 3
-140 3 -141 44 0 45 0 0 210 0 210 -44 0 -44 0 -93 -141 -94 -141 -5 138 -5
139 -40 3 c-23 2 -44 0 -48 -4z"/>
<path d="M9135 4180 c-7 -21 0 -40 16 -40 12 0 12 47 0 55 -5 3 -12 -4 -16
-15z"/>
<path d="M9407 4074 c-11 -11 3 -24 18 -18 8 4 12 10 9 15 -6 11 -18 12 -27 3z"/>
<path d="M8241 4034 c0 -11 3 -14 6 -6 3 7 2 16 -1 19 -3 4 -6 -2 -5 -13z"/>
<path d="M8274 3939 c-7 -12 12 -29 34 -29 15 0 16 12 0 28 -15 15 -25 15 -34
1z"/>
<path d="M9176 3593 c-4 -9 -2 -21 3 -26 15 -15 41 0 41 23 0 25 -35 28 -44 3z"/>
<path d="M8057 3524 c-8 -8 2 -55 14 -68 5 -5 6 8 2 30 -7 45 -7 46 -16 38z"/>
<path d="M9486 3521 c-4 -7 -5 -15 -2 -18 9 -9 19 4 14 18 -4 11 -6 11 -12 0z"/>
<path d="M637 3424 c-4 -4 -7 -99 -7 -211 l0 -203 50 0 50 0 0 85 0 85 85 0
85 0 0 -85 0 -85 45 0 45 0 0 210 0 210 -45 0 -45 0 0 -85 0 -85 -85 0 -84 0
-3 83 -3 82 -40 3 c-23 2 -44 0 -48 -4z"/>
<path d="M1143 3414 c-41 -15 -43 -18 -43 -56 0 -34 2 -39 18 -33 47 21 120
34 150 29 43 -8 62 -28 62 -65 0 -28 -1 -29 -51 -29 -68 0 -129 -17 -164 -44
-24 -20 -29 -32 -33 -82 -3 -49 0 -64 18 -86 45 -58 143 -61 205 -6 l35 30 0
-31 c0 -30 1 -31 45 -31 l45 0 -1 153 c0 168 -9 209 -52 241 -37 28 -171 33
-234 10z m187 -244 c0 -46 -46 -90 -94 -92 -82 -3 -91 95 -11 115 11 2 39 5
63 6 40 1 42 0 42 -29z"/>
<path d="M1700 3220 l0 -210 48 0 47 0 0 82 c0 113 14 114 96 4 l64 -85 58 -1
58 0 -74 98 c-40 53 -76 102 -80 109 -4 6 26 53 68 107 41 53 75 98 75 101 0
3 -20 5 -45 5 -44 0 -45 -1 -116 -91 -48 -60 -76 -88 -86 -85 -8 3 -17 6 -19
6 -2 0 -4 38 -4 85 l0 85 -45 0 -45 0 0 -210z"/>
<path d="M2130 3151 l0 -281 45 0 45 0 1 68 c1 37 0 82 -1 101 l-2 35 36 -32
c83 -73 212 -45 264 58 32 63 31 179 -1 241 -32 59 -84 89 -159 89 -52 0 -62
-3 -97 -36 l-40 -35 -3 33 c-3 31 -5 33 -45 36 l-43 3 0 -280z m282 169 c54
-58 46 -183 -15 -220 -97 -60 -196 35 -168 161 11 49 34 76 75 88 44 12 77 3
108 -29z"/>
<path d="M2703 3411 c-63 -29 -97 -87 -101 -173 -7 -117 44 -202 135 -227 110
-31 206 10 251 107 21 46 24 65 19 118 -5 73 -26 114 -80 158 -34 27 -47 31
-110 34 -55 2 -82 -2 -114 -17z m159 -73 c54 -27 66 -172 18 -223 -48 -51
-136 -41 -167 19 -23 43 -23 135 0 170 32 49 94 63 149 34z"/>
<path d="M3180 3414 c-82 -36 -127 -120 -117 -220 13 -123 87 -189 212 -189
39 0 85 6 103 14 28 12 32 18 32 52 0 22 -2 39 -4 39 -2 0 -20 -7 -39 -15 -42
-17 -104 -19 -141 -5 -56 21 -83 119 -55 198 23 68 116 87 222 46 14 -5 17 0
17 30 0 33 -4 39 -35 52 -45 18 -150 17 -195 -2z"/>
<path d="M3598 3420 c-81 -24 -128 -98 -128 -201 1 -110 52 -185 143 -210 46
-12 127 -8 170 9 23 10 27 17 27 51 l0 40 -41 -14 c-82 -29 -164 -11 -188 41
-29 64 -20 153 18 188 38 34 127 39 194 11 14 -6 17 -1 17 33 0 36 -3 41 -31
51 -37 13 -141 13 -181 1z"/>
<path d="M3985 3414 c-53 -27 -85 -66 -101 -123 -31 -104 8 -221 86 -261 133
-68 281 -4 309 132 18 84 -6 175 -56 220 -51 47 -177 64 -238 32z m163 -87
c72 -66 44 -221 -43 -243 -98 -24 -168 97 -122 209 27 64 112 81 165 34z"/>
<path d="M4368 3424 c-5 -4 -8 -99 -8 -211 l0 -203 118 0 c93 0 125 4 159 19
84 39 98 145 24 182 -14 7 -27 14 -29 15 -2 1 11 15 28 32 49 50 39 116 -23
148 -34 18 -255 33 -269 18z m222 -93 c24 -46 -3 -71 -76 -71 l-54 0 0 45 0
45 60 0 c48 0 61 -4 70 -19z m-2 -157 c31 -21 26 -64 -8 -81 -14 -7 -46 -13
-72 -13 l-48 0 0 55 0 55 53 0 c32 0 61 -6 75 -16z"/>
<path d="M4800 3220 l0 -210 45 0 45 0 0 85 c0 76 2 85 18 85 11 0 43 -33 83
-85 l64 -85 52 0 c29 0 53 2 53 5 0 3 -34 51 -75 105 -41 54 -75 102 -75 105
0 4 32 47 70 96 39 48 70 93 70 99 0 5 -19 10 -43 10 -42 0 -44 -1 -112 -90
-42 -54 -76 -89 -85 -88 -12 3 -16 22 -18 91 l-3 87 -44 0 -45 0 0 -210z"/>
<path d="M5230 3220 l0 -210 48 0 47 1 92 142 93 142 0 -142 0 -143 45 0 45 0
0 210 0 210 -44 0 -44 0 -93 -142 -94 -143 -3 143 -3 142 -44 0 -45 0 0 -210z"/>
<path d="M8268 3223 c-150 -19 -148 -18 -148 -57 0 -18 2 -35 5 -38 3 -3 40 1
83 9 42 8 123 16 180 18 98 4 106 3 185 -30 45 -19 90 -39 99 -45 34 -19 56
-12 63 21 4 17 5 32 3 33 -1 2 -41 18 -88 36 -47 18 -91 38 -97 43 -23 17
-178 23 -285 10z"/>
<path d="M9092 3048 c2 -15 10 -23 23 -23 13 0 21 8 23 23 3 18 -1 22 -23 22
-22 0 -26 -4 -23 -22z"/>
<path d="M9190 2918 c0 -4 35 -8 77 -8 42 0 73 3 70 7 -10 10 -147 11 -147 1z"/>
<path d="M9380 2918 c0 -10 99 -9 165 1 39 6 26 8 -57 7 -60 -1 -108 -4 -108
-8z"/>
<path d="M9132 2796 c-6 -9 -13 -25 -15 -38 -2 -20 4 -23 43 -30 83 -12 181
-8 283 13 55 11 107 24 115 28 14 8 -177 30 -328 37 -67 4 -88 2 -98 -10z"/>
<path d="M1700 2774 c-56 -24 -70 -42 -70 -90 l0 -43 57 35 c110 66 203 35
203 -70 0 -60 -71 -146 -212 -256 -56 -43 -58 -46 -58 -92 l0 -48 185 0 185 0
0 40 0 39 -132 3 -132 3 87 68 c138 108 184 182 175 279 -6 61 -31 96 -88 126
-53 26 -146 29 -200 6z"/>
<path d="M9748 2743 c6 -2 18 -2 25 0 6 3 1 5 -13 5 -14 0 -19 -2 -12 -5z"/>
<path d="M9520 2675 c-15 -8 -19 -14 -10 -14 18 -1 46 16 40 23 -3 2 -16 -2
-30 -9z"/>
<path d="M7661 2654 c0 -11 3 -14 6 -6 3 7 2 16 -1 19 -3 4 -6 -2 -5 -13z"/>
<path d="M8031 2641 c-9 -6 -7 -10 8 -14 12 -3 21 -1 21 3 0 14 -15 19 -29 11z"/>
<path d="M664 2619 c-25 -7 -33 -16 -36 -39 -6 -40 4 -55 29 -42 34 19 116 24
143 10 27 -15 38 -54 20 -72 -6 -6 -37 -13 -68 -16 -55 -5 -57 -6 -60 -36 l-3
-31 61 -6 c33 -3 67 -11 75 -17 22 -18 19 -67 -4 -80 -29 -15 -126 -12 -166 4
l-35 15 0 -38 c0 -32 5 -40 28 -50 42 -20 124 -25 180 -12 119 29 152 163 49
206 l-31 13 31 15 c35 18 43 34 43 83 0 48 -15 73 -55 90 -38 16 -152 17 -201
3z"/>
<path d="M1085 2618 c-46 -16 -55 -27 -55 -65 0 -30 3 -34 18 -28 9 5 41 14
70 22 45 12 60 12 95 1 38 -12 42 -16 45 -49 l3 -36 -73 -5 c-124 -8 -178 -49
-178 -135 0 -52 19 -85 60 -105 63 -32 116 -22 173 30 l27 26 0 -32 c0 -31 1
-32 45 -32 l45 0 0 158 c0 180 -10 214 -70 244 -40 20 -155 23 -205 6z m175
-248 c0 -18 -11 -42 -28 -61 -51 -57 -138 -37 -130 31 4 32 58 60 116 60 40 0
42 -1 42 -30z"/>
<path d="M2306 2578 c-3 -29 -8 -88 -11 -132 -8 -102 -29 -156 -61 -156 -24 0
-24 -1 -24 -100 l0 -100 39 0 c43 0 51 12 51 83 l0 38 143 -3 142 -3 3 -57 3
-58 39 0 40 0 0 100 0 100 -30 0 -30 0 0 170 0 170 -149 0 -150 0 -5 -52z
m214 -158 l0 -130 -86 0 c-78 0 -85 2 -79 17 10 29 23 103 30 176 l7 67 64 0
64 0 0 -130z"/>
<path d="M2747 2624 c-4 -4 -7 -99 -7 -211 l0 -203 50 0 50 0 0 85 0 85 85 0
85 0 0 -85 0 -85 50 0 50 0 -2 208 -3 207 -47 3 -48 3 0 -85 0 -86 -85 0 -84
0 -3 83 -3 82 -40 3 c-23 2 -44 0 -48 -4z"/>
<path d="M3313 2619 c-115 -27 -151 -175 -57 -231 l34 -20 -56 -79 -55 -79 53
0 53 0 48 70 c41 60 52 70 78 70 l29 0 0 -70 0 -70 45 0 45 0 0 200 c0 110 1
203 3 208 3 11 -172 12 -220 1z m127 -129 l0 -60 -52 0 c-60 0 -88 19 -88 61
0 38 33 59 92 59 l48 0 0 -60z"/>
<path d="M8090 2555 c0 -5 5 -17 10 -25 5 -8 10 -10 10 -5 0 6 -5 17 -10 25
-5 8 -10 11 -10 5z"/>
<path d="M9869 2264 c-50 -55 -273 -224 -295 -224 -12 0 -104 -90 -104 -102 0
-4 21 8 48 27 26 19 83 59 127 89 85 58 264 220 254 230 -3 3 -16 -6 -30 -20z"/>
<path d="M9297 1891 c-4 -18 -7 -45 -6 -60 1 -17 4 -11 10 19 5 25 8 52 6 60
-2 8 -6 0 -10 -19z"/>
<path d="M9350 1850 c0 -5 5 -10 11 -10 5 0 7 5 4 10 -3 6 -8 10 -11 10 -2 0
-4 -4 -4 -10z"/>
<path d="M9338 1792 c-3 -10 -15 -18 -28 -19 -13 -1 -27 -8 -31 -15 -6 -10
-41 -13 -135 -12 l-127 1 82 -24 c45 -13 99 -34 119 -48 27 -18 38 -21 44 -12
6 9 8 9 8 0 0 -16 32 -17 48 -1 9 9 18 9 37 0 34 -15 62 -15 67 0 4 10 11 9
29 -3 23 -15 118 -49 137 -49 5 0 15 11 22 25 7 13 16 23 19 20 4 -2 13 0 21
5 23 14 0 60 -40 82 -31 17 -48 19 -142 13 l-108 -7 0 31 c0 33 -15 42 -22 13z"/>
<path d="M8501 1732 c-29 -54 -17 -244 16 -265 7 -4 13 -16 13 -26 0 -15 -15
-22 -67 -35 -63 -16 -74 -23 -144 -93 l-77 -75 22 -34 c11 -18 26 -33 33 -34
7 0 17 -17 22 -37 6 -21 16 -60 23 -87 7 -27 25 -62 41 -77 21 -21 27 -37 27
-68 0 -25 5 -42 13 -43 47 -6 73 -4 80 6 6 7 7 5 4 -6 -3 -9 1 -22 9 -28 24
-20 16 -29 -16 -17 -25 9 -33 9 -47 -5 -15 -16 -14 -17 11 -24 14 -3 40 -4 56
-2 17 3 30 1 30 -4 0 -15 -5 -23 -13 -20 -5 1 -5 -3 -1 -9 13 -22 -66 -2 -102
26 -18 14 -41 41 -50 60 -9 19 -26 37 -37 41 -12 4 -39 22 -60 40 -20 19 -38
34 -40 34 -2 0 11 -30 29 -67 18 -38 30 -71 28 -75 -8 -13 60 -66 92 -72 23
-5 35 -16 48 -43 14 -29 20 -34 27 -22 5 8 9 21 9 29 0 16 84 45 100 35 5 -3
38 12 73 34 l65 39 31 -32 c17 -17 31 -38 31 -46 0 -13 -2 -13 -10 0 -5 8 -10
10 -10 4 0 -5 7 -19 16 -30 8 -10 13 -13 9 -6 -11 21 4 13 16 -9 8 -15 8 -19
0 -15 -23 15 -9 -14 24 -50 19 -20 35 -40 35 -44 0 -4 15 -19 34 -33 35 -27
66 -26 113 3 15 9 10 10 -22 5 -35 -5 -44 -2 -66 22 -49 52 -61 79 -53 117 7
41 -7 66 -38 66 -13 0 -25 14 -38 46 -24 56 -25 64 -2 104 l17 31 -30 24 c-16
14 -38 31 -47 39 -9 8 -20 35 -23 61 -6 39 -4 50 14 69 32 34 27 54 -19 66
-22 6 -40 15 -40 20 0 5 -11 21 -25 36 -29 31 -32 44 -9 44 12 0 15 6 10 25
-5 18 0 34 16 56 28 37 17 60 -36 73 -33 9 -38 15 -51 60 -24 79 -20 101 20
126 47 29 46 57 -2 76 -21 8 -46 19 -55 24 -13 7 -20 5 -27 -8z m149 -317 c7
-9 8 -15 2 -15 -5 0 -12 7 -16 15 -3 8 -4 15 -2 15 2 0 9 -7 16 -15z m40 -396
c0 -6 -4 -7 -10 -4 -5 3 -10 11 -10 16 0 6 5 7 10 4 6 -3 10 -11 10 -16z m-23
-51 c-2 -8 -22 -15 -43 -16 l-39 -2 40 19 c42 21 51 20 42 -1z m58 -78 c3 -5
1 -10 -4 -10 -6 0 -11 5 -11 10 0 6 2 10 4 10 3 0 8 -4 11 -10z m20 -67 c8
-20 13 -38 11 -41 -4 -3 -36 63 -36 74 0 14 12 -2 25 -33z"/>
<path d="M8753 1683 c-7 -2 -13 -9 -13 -14 0 -5 9 -4 19 3 16 10 25 7 55 -16
44 -33 51 -59 37 -126 -16 -73 -14 -134 6 -174 16 -35 16 -36 -15 -96 -36 -68
-39 -78 -17 -60 8 7 15 16 15 21 0 5 11 27 25 50 l26 40 27 -20 c15 -10 55
-46 88 -80 49 -48 63 -57 68 -45 4 10 -1 22 -11 29 -10 8 -15 17 -11 21 5 4
17 -1 28 -11 18 -16 20 -16 20 -2 0 10 -3 17 -7 17 -5 0 -13 12 -20 26 -10 22
-10 25 3 20 25 -10 15 23 -33 111 -28 49 -75 114 -110 151 -35 35 -63 73 -63
82 0 10 -16 32 -35 49 -34 30 -55 36 -82 24z m202 -361 c-3 -4 -9 -2 -13 4 -4
6 -16 14 -27 18 -11 3 -26 15 -33 27 -11 17 -4 15 33 -11 26 -18 44 -35 40
-38z"/>
<path d="M8678 1576 c-10 -7 -14 -17 -10 -21 4 -5 -1 -5 -10 -2 -12 4 -18 1
-18 -8 0 -9 -6 -12 -17 -9 -16 5 -16 4 0 -6 10 -6 25 -9 33 -6 8 3 13 2 10 -3
-7 -10 33 -23 46 -15 13 8 9 60 -5 72 -8 7 -17 7 -29 -2z m32 -32 c0 -15 -6
-24 -15 -24 -15 0 -21 40 -9 53 12 11 24 -3 24 -29z"/>
<path d="M9101 1324 c0 -11 3 -14 6 -6 3 7 2 16 -1 19 -3 4 -6 -2 -5 -13z"/>
<path d="M8907 1083 c-23 -46 -28 -82 -17 -124 14 -49 25 -44 40 21 7 31 17
50 26 50 36 0 24 48 -17 71 -15 7 -21 4 -32 -18z"/>
<path d="M8055 1040 c-3 -5 0 -10 7 -10 13 0 109 -35 142 -52 13 -7 17 -6 14
3 -2 7 -17 17 -34 22 -16 6 -41 18 -56 28 -29 21 -63 25 -73 9z"/>
<path d="M7787 853 c-15 -4 -47 -50 -47 -68 0 -17 19 -1 30 25 7 17 17 30 22
30 5 0 6 -6 2 -12 -5 -9 -2 -9 9 1 17 14 23 32 10 30 -5 -1 -16 -3 -26 -6z"/>
<path d="M7817 773 c-3 -16 -15 -54 -27 -87 -18 -50 -20 -65 -10 -108 13 -65
23 -82 83 -145 38 -41 50 -60 49 -83 -1 -33 4 -36 32 -15 23 17 15 70 -9 61
-17 -6 -100 77 -127 127 -18 33 -23 78 -11 91 4 4 8 17 8 29 0 12 6 21 13 20
6 -2 12 3 12 11 0 8 -6 17 -12 19 -10 4 -10 6 0 6 8 1 16 -8 19 -19 3 -11 10
-20 15 -20 8 0 5 18 -9 56 -2 6 2 18 10 26 13 12 12 17 -3 36 -23 28 -27 28
-33 -5z"/>
<path d="M7349 757 c-54 -36 -71 -79 -64 -162 3 -38 6 -103 6 -144 -1 -115 30
-199 64 -171 10 8 15 8 21 -1 4 -8 3 -9 -4 -5 -7 4 -12 4 -13 -1 -4 -53 -12
-80 -25 -90 -12 -9 -17 -29 -18 -70 -1 -86 9 -113 42 -113 19 0 23 3 13 9 -10
7 -11 12 -1 27 8 14 10 14 7 3 -7 -23 12 -39 45 -39 25 0 28 3 28 35 0 59 -20
130 -40 143 -12 7 -21 8 -25 2 -9 -15 -25 -12 -25 5 0 8 11 17 24 21 21 5 26
14 32 62 4 36 2 83 -7 127 -26 136 -16 202 33 225 18 8 34 21 36 28 2 7 -15
31 -38 53 -31 30 -40 43 -31 52 33 33 -12 37 -60 4z"/>
<path d="M7594 649 c-4 -7 0 -9 14 -5 15 5 28 -1 47 -21 40 -43 41 -67 8 -168
-27 -83 -29 -97 -20 -143 10 -47 9 -53 -16 -89 -65 -93 -64 -91 -30 -60 17 16
39 44 49 63 10 19 26 34 35 34 17 0 129 -113 129 -130 0 -6 5 -10 11 -10 7 0
9 11 6 30 -5 24 -4 28 10 23 13 -5 15 -1 10 25 -5 25 -3 30 8 25 24 -9 18 30
-19 119 -48 115 -63 142 -95 177 -16 17 -32 42 -35 55 -15 60 -90 110 -112 75z"/>
<path d="M7650 30 l-21 -30 50 0 c55 0 66 14 33 43 -26 24 -38 21 -62 -13z"/>
</g>
</svg>
